<mxfile host="app.diagrams.net" modified="2023-03-22T18:17:06.735Z" agent="5.0 (Windows NT 10.0; Win64; x64) AppleWebKit/537.36 (KHTML, like Gecko) Chrome/111.0.0.0 Safari/537.36 Edg/111.0.1661.44" etag="IShRNStCvbPoP4HPYrgZ" version="21.0.10" type="github">
  <diagram name="Page-1" id="xQe_PqWCy_C0BTVjJfYO">
    <mxGraphModel dx="546" dy="648" grid="1" gridSize="10" guides="1" tooltips="1" connect="1" arrows="1" fold="1" page="1" pageScale="1" pageWidth="850" pageHeight="1100" math="0" shadow="0">
      <root>
        <mxCell id="0" />
        <mxCell id="1" parent="0" />
        <mxCell id="_dcunJNgSEMukH39nl9C-8" value="PERSOANE&lt;br&gt;IdPersoana&lt;br&gt;Nume&lt;br&gt;Prenume&lt;br&gt;Adresa&lt;br&gt;Email&lt;br&gt;Telefon" style="rounded=0;whiteSpace=wrap;html=1;" parent="1" vertex="1">
          <mxGeometry x="90" y="130" width="180" height="110" as="geometry" />
        </mxCell>
        <mxCell id="_dcunJNgSEMukH39nl9C-10" value="SPECIALIZARI&lt;br&gt;Nume&lt;br&gt;Descriere" style="rounded=0;whiteSpace=wrap;html=1;" parent="1" vertex="1">
          <mxGeometry x="120" y="490" width="120" height="60" as="geometry" />
        </mxCell>
        <mxCell id="_dcunJNgSEMukH39nl9C-14" value="" style="edgeStyle=orthogonalEdgeStyle;rounded=0;orthogonalLoop=1;jettySize=auto;html=1;" parent="1" source="_dcunJNgSEMukH39nl9C-12" target="_dcunJNgSEMukH39nl9C-8" edge="1">
          <mxGeometry relative="1" as="geometry" />
        </mxCell>
        <mxCell id="_dcunJNgSEMukH39nl9C-16" value="" style="edgeStyle=orthogonalEdgeStyle;rounded=0;orthogonalLoop=1;jettySize=auto;html=1;" parent="1" source="_dcunJNgSEMukH39nl9C-12" target="_dcunJNgSEMukH39nl9C-10" edge="1">
          <mxGeometry relative="1" as="geometry" />
        </mxCell>
        <mxCell id="_dcunJNgSEMukH39nl9C-12" value="MEDICI" style="rhombus;whiteSpace=wrap;html=1;" parent="1" vertex="1">
          <mxGeometry x="140" y="320" width="80" height="80" as="geometry" />
        </mxCell>
        <mxCell id="_dcunJNgSEMukH39nl9C-15" value="1" style="text;html=1;strokeColor=none;fillColor=none;align=center;verticalAlign=middle;whiteSpace=wrap;rounded=0;" parent="1" vertex="1">
          <mxGeometry x="170" y="240" width="60" height="30" as="geometry" />
        </mxCell>
        <mxCell id="_dcunJNgSEMukH39nl9C-17" value="M(1)" style="text;html=1;strokeColor=none;fillColor=none;align=center;verticalAlign=middle;whiteSpace=wrap;rounded=0;" parent="1" vertex="1">
          <mxGeometry x="190" y="460" width="60" height="30" as="geometry" />
        </mxCell>
        <mxCell id="_dcunJNgSEMukH39nl9C-18" value="PROGRAMARI&lt;br&gt;IdProgramare&lt;br&gt;Data&lt;br&gt;Ora" style="rounded=0;whiteSpace=wrap;html=1;" parent="1" vertex="1">
          <mxGeometry x="450" y="10" width="120" height="60" as="geometry" />
        </mxCell>
        <mxCell id="_dcunJNgSEMukH39nl9C-19" value="CONSULTATII&lt;br&gt;Data&lt;br&gt;Diagnostic&lt;br&gt;" style="rounded=0;whiteSpace=wrap;html=1;" parent="1" vertex="1">
          <mxGeometry x="360" y="330" width="120" height="60" as="geometry" />
        </mxCell>
        <mxCell id="_dcunJNgSEMukH39nl9C-20" value="MEDICAMENTE&lt;br&gt;IdMedicamen&lt;br&gt;Nume" style="rounded=0;whiteSpace=wrap;html=1;" parent="1" vertex="1">
          <mxGeometry x="730" y="315" width="120" height="60" as="geometry" />
        </mxCell>
        <mxCell id="_dcunJNgSEMukH39nl9C-21" value="ANALIZE&lt;br&gt;IdAnaliza&lt;br&gt;Nume&lt;br&gt;Descriere&lt;br&gt;Pret" style="rounded=0;whiteSpace=wrap;html=1;" parent="1" vertex="1">
          <mxGeometry x="460" y="620" width="120" height="90" as="geometry" />
        </mxCell>
        <mxCell id="_dcunJNgSEMukH39nl9C-22" value="REZULTATE&lt;br&gt;IdRezultat&lt;br&gt;Data" style="rounded=0;whiteSpace=wrap;html=1;" parent="1" vertex="1">
          <mxGeometry x="690" y="445" width="120" height="60" as="geometry" />
        </mxCell>
        <mxCell id="_dcunJNgSEMukH39nl9C-31" value="" style="endArrow=classic;html=1;rounded=0;exitX=0;exitY=0.5;exitDx=0;exitDy=0;entryX=1;entryY=0.5;entryDx=0;entryDy=0;" parent="1" source="w1ECHWN6NfRj8slIh9HD-23" target="_dcunJNgSEMukH39nl9C-8" edge="1">
          <mxGeometry width="50" height="50" relative="1" as="geometry">
            <mxPoint x="420" y="190" as="sourcePoint" />
            <mxPoint x="380" y="240" as="targetPoint" />
          </mxGeometry>
        </mxCell>
        <mxCell id="_dcunJNgSEMukH39nl9C-32" value="M(1)" style="text;html=1;strokeColor=none;fillColor=none;align=center;verticalAlign=middle;whiteSpace=wrap;rounded=0;" parent="1" vertex="1">
          <mxGeometry x="270" y="145" width="60" height="30" as="geometry" />
        </mxCell>
        <mxCell id="_dcunJNgSEMukH39nl9C-34" value="" style="endArrow=classic;html=1;rounded=0;entryX=1;entryY=0.5;entryDx=0;entryDy=0;exitX=0;exitY=0.5;exitDx=0;exitDy=0;" parent="1" source="_dcunJNgSEMukH39nl9C-19" target="_dcunJNgSEMukH39nl9C-12" edge="1">
          <mxGeometry width="50" height="50" relative="1" as="geometry">
            <mxPoint x="310" y="375" as="sourcePoint" />
            <mxPoint x="260" y="325" as="targetPoint" />
          </mxGeometry>
        </mxCell>
        <mxCell id="_dcunJNgSEMukH39nl9C-35" value="M(1)" style="text;html=1;strokeColor=none;fillColor=none;align=center;verticalAlign=middle;whiteSpace=wrap;rounded=0;" parent="1" vertex="1">
          <mxGeometry x="570" y="620" width="60" height="30" as="geometry" />
        </mxCell>
        <mxCell id="_dcunJNgSEMukH39nl9C-36" value="1" style="text;html=1;strokeColor=none;fillColor=none;align=center;verticalAlign=middle;whiteSpace=wrap;rounded=0;" parent="1" vertex="1">
          <mxGeometry x="210" y="330" width="60" height="30" as="geometry" />
        </mxCell>
        <mxCell id="_dcunJNgSEMukH39nl9C-37" value="LISTEMEDICAMENTE" style="rhombus;whiteSpace=wrap;html=1;" parent="1" vertex="1">
          <mxGeometry x="530" y="250" width="140" height="175" as="geometry" />
        </mxCell>
        <mxCell id="_dcunJNgSEMukH39nl9C-38" value="" style="endArrow=classic;html=1;rounded=0;exitX=1;exitY=0.5;exitDx=0;exitDy=0;entryX=0;entryY=0.5;entryDx=0;entryDy=0;" parent="1" source="_dcunJNgSEMukH39nl9C-37" target="_dcunJNgSEMukH39nl9C-20" edge="1">
          <mxGeometry width="50" height="50" relative="1" as="geometry">
            <mxPoint x="660" y="420" as="sourcePoint" />
            <mxPoint x="710" y="370" as="targetPoint" />
          </mxGeometry>
        </mxCell>
        <mxCell id="_dcunJNgSEMukH39nl9C-39" value="" style="endArrow=classic;html=1;rounded=0;entryX=1;entryY=0.5;entryDx=0;entryDy=0;exitX=0;exitY=0.5;exitDx=0;exitDy=0;" parent="1" source="_dcunJNgSEMukH39nl9C-37" target="_dcunJNgSEMukH39nl9C-19" edge="1">
          <mxGeometry width="50" height="50" relative="1" as="geometry">
            <mxPoint x="660" y="420" as="sourcePoint" />
            <mxPoint x="710" y="370" as="targetPoint" />
          </mxGeometry>
        </mxCell>
        <mxCell id="_dcunJNgSEMukH39nl9C-41" value="M(0)" style="text;html=1;strokeColor=none;fillColor=none;align=center;verticalAlign=middle;whiteSpace=wrap;rounded=0;" parent="1" vertex="1">
          <mxGeometry x="670" y="300" width="60" height="30" as="geometry" />
        </mxCell>
        <mxCell id="_dcunJNgSEMukH39nl9C-42" value="LISTEANALIZE" style="rhombus;whiteSpace=wrap;html=1;" parent="1" vertex="1">
          <mxGeometry x="250" y="610" width="120" height="110" as="geometry" />
        </mxCell>
        <mxCell id="_dcunJNgSEMukH39nl9C-45" value="" style="endArrow=classic;html=1;rounded=0;exitX=0;exitY=0.5;exitDx=0;exitDy=0;" parent="1" source="_dcunJNgSEMukH39nl9C-42" target="_dcunJNgSEMukH39nl9C-19" edge="1">
          <mxGeometry width="50" height="50" relative="1" as="geometry">
            <mxPoint x="160" y="640" as="sourcePoint" />
            <mxPoint x="210" y="590" as="targetPoint" />
          </mxGeometry>
        </mxCell>
        <mxCell id="_dcunJNgSEMukH39nl9C-46" value="" style="endArrow=classic;html=1;rounded=0;exitX=1;exitY=0.5;exitDx=0;exitDy=0;" parent="1" source="_dcunJNgSEMukH39nl9C-42" target="_dcunJNgSEMukH39nl9C-21" edge="1">
          <mxGeometry width="50" height="50" relative="1" as="geometry">
            <mxPoint x="380" y="620" as="sourcePoint" />
            <mxPoint x="430" y="570" as="targetPoint" />
          </mxGeometry>
        </mxCell>
        <mxCell id="_dcunJNgSEMukH39nl9C-47" value="M(0)" style="text;html=1;strokeColor=none;fillColor=none;align=center;verticalAlign=middle;whiteSpace=wrap;rounded=0;" parent="1" vertex="1">
          <mxGeometry x="400" y="390" width="60" height="30" as="geometry" />
        </mxCell>
        <mxCell id="_dcunJNgSEMukH39nl9C-48" value="M(0)" style="text;html=1;strokeColor=none;fillColor=none;align=center;verticalAlign=middle;whiteSpace=wrap;rounded=0;" parent="1" vertex="1">
          <mxGeometry x="410" y="630" width="60" height="30" as="geometry" />
        </mxCell>
        <mxCell id="_dcunJNgSEMukH39nl9C-49" value="" style="endArrow=classic;html=1;rounded=0;exitX=0.5;exitY=0;exitDx=0;exitDy=0;entryX=0.017;entryY=0.408;entryDx=0;entryDy=0;entryPerimeter=0;" parent="1" source="_dcunJNgSEMukH39nl9C-42" target="_dcunJNgSEMukH39nl9C-22" edge="1">
          <mxGeometry width="50" height="50" relative="1" as="geometry">
            <mxPoint x="630" y="510" as="sourcePoint" />
            <mxPoint x="680" y="460" as="targetPoint" />
          </mxGeometry>
        </mxCell>
        <mxCell id="_dcunJNgSEMukH39nl9C-50" value="1" style="text;html=1;strokeColor=none;fillColor=none;align=center;verticalAlign=middle;whiteSpace=wrap;rounded=0;" parent="1" vertex="1">
          <mxGeometry x="290" y="570" width="60" height="30" as="geometry" />
        </mxCell>
        <mxCell id="_dcunJNgSEMukH39nl9C-53" value="" style="endArrow=classic;html=1;rounded=0;exitX=0.5;exitY=0.937;exitDx=0;exitDy=0;exitPerimeter=0;entryX=1;entryY=0.75;entryDx=0;entryDy=0;" parent="1" source="w1ECHWN6NfRj8slIh9HD-23" target="_dcunJNgSEMukH39nl9C-57" edge="1">
          <mxGeometry width="50" height="50" relative="1" as="geometry">
            <mxPoint x="630" y="410" as="sourcePoint" />
            <mxPoint x="500" y="270" as="targetPoint" />
          </mxGeometry>
        </mxCell>
        <mxCell id="_dcunJNgSEMukH39nl9C-54" value="" style="endArrow=classic;html=1;rounded=0;entryX=0;entryY=0;entryDx=0;entryDy=0;exitX=0.504;exitY=0.069;exitDx=0;exitDy=0;exitPerimeter=0;" parent="1" source="w1ECHWN6NfRj8slIh9HD-23" target="_dcunJNgSEMukH39nl9C-56" edge="1">
          <mxGeometry width="50" height="50" relative="1" as="geometry">
            <mxPoint x="560" y="140" as="sourcePoint" />
            <mxPoint x="499.5600000000002" y="147.48000000000002" as="targetPoint" />
          </mxGeometry>
        </mxCell>
        <mxCell id="_dcunJNgSEMukH39nl9C-56" value="M(1)" style="text;html=1;strokeColor=none;fillColor=none;align=center;verticalAlign=middle;whiteSpace=wrap;rounded=0;" parent="1" vertex="1">
          <mxGeometry x="500" y="70" width="60" height="30" as="geometry" />
        </mxCell>
        <mxCell id="_dcunJNgSEMukH39nl9C-57" value="M(1)" style="text;html=1;strokeColor=none;fillColor=none;align=center;verticalAlign=middle;whiteSpace=wrap;rounded=0;" parent="1" vertex="1">
          <mxGeometry x="380" y="300" width="60" height="30" as="geometry" />
        </mxCell>
        <mxCell id="w1ECHWN6NfRj8slIh9HD-2" value="" style="endArrow=classic;html=1;rounded=0;entryX=1.051;entryY=0.557;entryDx=0;entryDy=0;entryPerimeter=0;exitX=0;exitY=0.5;exitDx=0;exitDy=0;" edge="1" parent="1" source="w1ECHWN6NfRj8slIh9HD-11" target="_dcunJNgSEMukH39nl9C-21">
          <mxGeometry width="50" height="50" relative="1" as="geometry">
            <mxPoint x="677.0000000000002" y="596.8399999999999" as="sourcePoint" />
            <mxPoint x="690" y="670" as="targetPoint" />
          </mxGeometry>
        </mxCell>
        <mxCell id="w1ECHWN6NfRj8slIh9HD-3" value="M(1)" style="text;html=1;strokeColor=none;fillColor=none;align=center;verticalAlign=middle;whiteSpace=wrap;rounded=0;" vertex="1" parent="1">
          <mxGeometry x="310" y="320" width="60" height="30" as="geometry" />
        </mxCell>
        <mxCell id="w1ECHWN6NfRj8slIh9HD-4" value="1" style="text;html=1;strokeColor=none;fillColor=none;align=center;verticalAlign=middle;whiteSpace=wrap;rounded=0;" vertex="1" parent="1">
          <mxGeometry x="630" y="425" width="60" height="30" as="geometry" />
        </mxCell>
        <mxCell id="w1ECHWN6NfRj8slIh9HD-7" value="" style="endArrow=classic;html=1;rounded=0;exitX=0.508;exitY=0.032;exitDx=0;exitDy=0;exitPerimeter=0;entryX=0.452;entryY=0.987;entryDx=0;entryDy=0;entryPerimeter=0;" edge="1" parent="1" source="w1ECHWN6NfRj8slIh9HD-11" target="_dcunJNgSEMukH39nl9C-22">
          <mxGeometry width="50" height="50" relative="1" as="geometry">
            <mxPoint x="724.5200000000002" y="559.6400000000001" as="sourcePoint" />
            <mxPoint x="740" y="520" as="targetPoint" />
          </mxGeometry>
        </mxCell>
        <mxCell id="w1ECHWN6NfRj8slIh9HD-9" value="M(1)" style="text;html=1;strokeColor=none;fillColor=none;align=center;verticalAlign=middle;whiteSpace=wrap;rounded=0;" vertex="1" parent="1">
          <mxGeometry x="690" y="500" width="60" height="30" as="geometry" />
        </mxCell>
        <mxCell id="w1ECHWN6NfRj8slIh9HD-11" value="LISTEREZULTATE" style="rhombus;whiteSpace=wrap;html=1;" vertex="1" parent="1">
          <mxGeometry x="690" y="530" width="130" height="155" as="geometry" />
        </mxCell>
        <mxCell id="w1ECHWN6NfRj8slIh9HD-18" value="" style="endArrow=classic;html=1;rounded=0;entryX=0;entryY=0.5;entryDx=0;entryDy=0;exitX=0;exitY=0.5;exitDx=0;exitDy=0;" edge="1" parent="1" source="_dcunJNgSEMukH39nl9C-12" target="_dcunJNgSEMukH39nl9C-18">
          <mxGeometry width="50" height="50" relative="1" as="geometry">
            <mxPoint x="140" y="360" as="sourcePoint" />
            <mxPoint x="380" y="25" as="targetPoint" />
            <Array as="points">
              <mxPoint x="40" y="140" />
            </Array>
          </mxGeometry>
        </mxCell>
        <mxCell id="w1ECHWN6NfRj8slIh9HD-19" value="1" style="text;html=1;strokeColor=none;fillColor=none;align=center;verticalAlign=middle;whiteSpace=wrap;rounded=0;" vertex="1" parent="1">
          <mxGeometry x="120" y="285" width="60" height="30" as="geometry" />
        </mxCell>
        <mxCell id="w1ECHWN6NfRj8slIh9HD-22" value="M(1)" style="text;html=1;strokeColor=none;fillColor=none;align=center;verticalAlign=middle;whiteSpace=wrap;rounded=0;" vertex="1" parent="1">
          <mxGeometry x="390" y="70" width="60" height="30" as="geometry" />
        </mxCell>
        <mxCell id="w1ECHWN6NfRj8slIh9HD-23" value="PACIENTI" style="rhombus;whiteSpace=wrap;html=1;" vertex="1" parent="1">
          <mxGeometry x="450" y="145" width="80" height="80" as="geometry" />
        </mxCell>
        <mxCell id="w1ECHWN6NfRj8slIh9HD-25" value="M(0)" style="text;html=1;strokeColor=none;fillColor=none;align=center;verticalAlign=middle;whiteSpace=wrap;rounded=0;" vertex="1" parent="1">
          <mxGeometry x="490" y="300" width="60" height="30" as="geometry" />
        </mxCell>
      </root>
    </mxGraphModel>
  </diagram>
</mxfile>
